<svg width="300" height="300" viewBox="0 0 300 300" fill="none" xmlns="http://www.w3.org/2000/svg">
<g clip-path="url(#clip0_92_3)">
<rect width="300" height="300" fill="#F2F2F2"/>
<path d="M55.1878 -59.1187C55.9061 -60.6572 58.0939 -60.6572 58.8122 -59.1187L78.5096 -16.9311C78.9998 -15.8812 80.2769 -15.4662 81.2906 -16.0275L122.023 -38.5801C123.509 -39.4026 125.279 -38.1166 124.956 -36.4497L116.094 9.25858C115.873 10.3961 116.663 11.4824 117.813 11.6242L164.022 17.3209C165.707 17.5287 166.383 19.6093 165.142 20.7679L131.106 52.538C130.259 53.3286 130.259 54.6714 131.106 55.462L165.142 87.2321C166.383 88.3907 165.707 90.4713 164.022 90.6791L117.813 96.3758C116.663 96.5176 115.873 97.6039 116.094 98.7414L124.956 144.45C125.279 146.117 123.509 147.403 122.023 146.58L81.2906 124.028C80.2769 123.466 78.9998 123.881 78.5096 124.931L58.8122 167.119C58.0939 168.657 55.9061 168.657 55.1878 167.119L35.4904 124.931C35.0002 123.881 33.7231 123.466 32.7094 124.028L-8.02337 146.58C-9.50883 147.403 -11.2788 146.117 -10.9556 144.45L-2.0939 98.7414C-1.87336 97.6039 -2.66262 96.5176 -3.81264 96.3758L-50.0222 90.6791C-51.7074 90.4713 -52.3835 88.3907 -51.1422 87.2321L-17.1063 55.462C-16.2593 54.6714 -16.2593 53.3286 -17.1063 52.538L-51.1422 20.7679C-52.3835 19.6093 -51.7074 17.5287 -50.0222 17.3209L-3.81264 11.6242C-2.66262 11.4824 -1.87336 10.3961 -2.0939 9.25859L-10.9556 -36.4497C-11.2788 -38.1166 -9.50883 -39.4026 -8.02337 -38.5801L32.7094 -16.0275C33.7231 -15.4662 35.0002 -15.8812 35.4904 -16.9311L55.1878 -59.1187Z" fill="#FEAE13"/>
<path d="M114.188 169.881C114.906 168.343 117.094 168.343 117.812 169.881L137.51 212.069C138 213.119 139.277 213.534 140.291 212.973L181.023 190.42C182.509 189.597 184.279 190.883 183.956 192.55L175.094 238.259C174.873 239.396 175.663 240.482 176.813 240.624L223.022 246.321C224.707 246.529 225.383 248.609 224.142 249.768L190.106 281.538C189.259 282.329 189.259 283.671 190.106 284.462L224.142 316.232C225.383 317.391 224.707 319.471 223.022 319.679L176.813 325.376C175.663 325.518 174.873 326.604 175.094 327.741L183.956 373.45C184.279 375.117 182.509 376.403 181.023 375.58L140.291 353.028C139.277 352.466 138 352.881 137.51 353.931L117.812 396.119C117.094 397.657 114.906 397.657 114.188 396.119L94.4904 353.931C94.0002 352.881 92.7231 352.466 91.7094 353.028L50.9766 375.58C49.4912 376.403 47.7212 375.117 48.0444 373.45L56.9061 327.741C57.1266 326.604 56.3374 325.518 55.1874 325.376L8.97777 319.679C7.29258 319.471 6.61653 317.391 7.85776 316.232L41.8937 284.462C42.7407 283.671 42.7407 282.329 41.8937 281.538L7.85776 249.768C6.61653 248.609 7.29258 246.529 8.97777 246.321L55.1874 240.624C56.3374 240.482 57.1266 239.396 56.9061 238.259L48.0444 192.55C47.7212 190.883 49.4912 189.597 50.9766 190.42L91.7094 212.972C92.7231 213.534 94.0002 213.119 94.4904 212.069L114.188 169.881Z" fill="#FEAE13"/>
<path d="M105.968 300V233.617C105.968 216.922 109.275 204.069 115.888 195.059C122.501 186.049 131.892 179.689 144.06 175.979L144.457 174.389L102 158.886V148.551C102 135.566 105.836 123.641 113.507 112.775C121.178 101.91 132.421 93.2977 147.234 86.9376C162.313 80.3125 180.565 77 201.992 77C222.096 77 239.423 80.18 253.972 86.5401C268.521 92.6352 279.764 101.91 287.699 114.365C295.9 126.556 300 142.058 300 160.873V300H240.481V164.451C240.481 151.201 236.91 141.263 229.768 134.638C222.89 128.013 213.102 124.701 200.405 124.701C188.236 124.701 179.11 127.351 173.026 132.651C166.942 137.686 163.635 143.913 163.106 151.333L198.421 167.631L194.056 193.469C184.533 193.999 177.391 197.444 172.629 203.804C167.868 210.164 165.487 218.777 165.487 229.642V300H105.968Z" fill="#047302"/>
<path d="M321.136 16.9545C322.259 15.6807 324.358 16.2972 324.614 17.9758L331.625 64.0043C331.8 65.1498 332.908 65.9077 334.039 65.6549L379.476 55.494C381.133 55.1234 382.469 56.856 381.689 58.3643L360.307 99.7233C359.775 100.753 360.226 102.017 361.289 102.477L404.021 120.964C405.579 121.639 405.642 123.825 404.124 124.587L362.515 145.479C361.48 145.999 361.101 147.287 361.691 148.285L385.396 188.358C386.26 189.82 385.025 191.625 383.35 191.35L337.408 183.795C336.264 183.607 335.201 184.427 335.092 185.58L330.715 231.933C330.555 233.624 328.494 234.359 327.301 233.151L294.574 200.035C293.759 199.21 292.417 199.249 291.651 200.118L260.864 235.045C259.741 236.319 257.642 235.703 257.386 234.024L250.375 187.996C250.2 186.85 249.092 186.092 247.961 186.345L202.524 196.506C200.867 196.877 199.531 195.144 200.311 193.636L221.693 152.277C222.225 151.247 221.774 149.983 220.711 149.523L177.979 131.036C176.421 130.361 176.358 128.175 177.876 127.413L219.485 106.521C220.52 106.001 220.899 104.713 220.309 103.715L196.604 63.6418C195.74 62.1804 196.975 60.3745 198.65 60.65L244.592 68.2053C245.736 68.3934 246.799 67.5735 246.908 66.4199L251.285 20.0667C251.445 18.3763 253.506 17.6412 254.699 18.8489L287.426 51.9655C288.241 52.7896 289.583 52.7514 290.349 51.8821L321.136 16.9545Z" fill="#FEAE13"/>
</g>
<defs>
<clipPath id="clip0_92_3">
<rect width="300" height="300" fill="white"/>
</clipPath>
</defs>
</svg>
