<svg width="100" height="50" viewBox="0 0 100 50" fill="none" xmlns="http://www.w3.org/2000/svg">
<g clip-path="url(#clip0_101_2)">
<rect width="100" height="50" fill="black"/>
<path d="M67.4821 35.4768L72.8658 28.8238L77.1623 32.5464L71.4848 38.9662L79.317 42.3392L77.0898 47.5725L69.0832 43.8974L68.5012 52.5312L62.7957 51.8777L63.7908 43.4083L55.5116 45.0464L54.436 39.4643L62.7106 38.2316L58.3501 30.6791L63.1216 27.9242L67.4821 35.4768Z" fill="#EC4899"/>
<path d="M79 -30H93.5235V-23.8385H86.8119V14.0106H93.5235V20.172H79V-30Z" fill="#047302"/>
<path d="M45 21.3904L65.1898 13.3584L45 5.32652V-1L72.9467 10.1127V16.6042L45 27.6619V21.3904Z" fill="#FE3D13"/>
<path d="M103.659 28L103.659 35.8119L95.2422 35.8119C94.0319 35.8485 92.895 35.6652 91.8314 35.2617C90.7678 34.895 89.8326 34.3632 89.0257 33.6664C88.2189 32.9695 87.5404 32.126 86.9902 31.1358C86.4768 30.1822 86.1467 29.1369 86 28L89.6309 28C90.1077 29.3937 90.8045 30.3472 91.7214 30.8607C92.6749 31.3741 93.8302 31.6309 95.1872 31.6309L95.1872 28L103.659 28ZM103.659 39.7178L103.659 47.5297L95.2422 47.5297C94.0319 47.5664 92.895 47.383 91.8314 46.9796C90.7678 46.6128 89.8326 46.081 89.0257 45.3842C88.2189 44.6873 87.5404 43.8438 86.9902 42.8536C86.4768 41.9 86.1467 40.8547 86 39.7178L89.6309 39.7178C90.1077 41.1115 90.8045 42.065 91.7214 42.5785C92.6749 43.092 93.8302 43.3487 95.1872 43.3487L95.1872 39.7178L103.659 39.7178Z" fill="#5A39A2"/>
<path d="M22.6371 12.472H14V4H22.6371V12.472ZM14 23.4747H22.6371V31.9467C22.6371 33.1937 22.3987 34.3306 21.9219 35.3575C21.4818 36.4211 20.8766 37.338 20.1065 38.1082C19.3363 38.8784 18.4194 39.5018 17.3558 39.9786C16.3289 40.4921 15.2286 40.8405 14.055 41.0239V37.0629C14.6051 36.9529 15.1186 36.7328 15.5954 36.4028C16.1088 36.0727 16.5489 35.6693 16.9157 35.1925C17.2825 34.7524 17.5575 34.2389 17.7409 33.6521C17.9243 33.102 17.9976 32.5335 17.9609 31.9467H14V23.4747Z" fill="#FEAE13"/>
<path d="M31 37.8863H38.2574V45.0051H31V37.8863ZM38.0263 20.8753L36.2235 35.1128H32.9415L31.1849 20.8753V12H38.0263V20.8753Z" fill="#056CF2"/>
<path d="M2.69974 37.6722V44.7909H-4.55768V37.6722H2.69974ZM-12 22.4177C-11.9692 20.7536 -11.6918 19.2282 -11.1679 17.8414C-10.6132 16.4546 -9.85821 15.2528 -8.90288 14.2358C-7.91674 13.2188 -6.74569 12.433 -5.38974 11.8783C-4.00297 11.2928 -2.46212 11 -0.76718 11C1.42083 11 3.23904 11.3082 4.68744 11.9245C6.16666 12.51 7.35312 13.2496 8.24681 14.1433C9.14051 15.037 9.77226 16.0078 10.1421 17.0556C10.5427 18.0725 10.743 19.0278 10.743 19.9215C10.743 21.4008 10.5427 22.618 10.1421 23.5734C9.77226 24.5287 9.29459 25.3453 8.70907 26.0233C8.15436 26.7013 7.52261 27.2868 6.81382 27.7799C6.13584 28.2421 5.48868 28.7198 4.87234 29.2129C4.256 29.6751 3.70129 30.2144 3.20822 30.8308C2.74597 31.4471 2.4532 32.2175 2.32994 33.1421V34.8986H-3.91052V32.8185C-3.81807 31.4933 -3.57153 30.3839 -3.17091 29.4902C-2.73947 28.5965 -2.2464 27.8415 -1.69169 27.2252C-1.13698 26.578 -0.55146 26.0233 0.0648815 25.5611C0.681223 25.0988 1.25134 24.6365 1.77523 24.1743C2.29912 23.712 2.71515 23.2036 3.02332 22.6489C3.36231 22.0941 3.51639 21.4008 3.48558 20.5687C3.48558 19.1511 3.13118 18.1033 2.42239 17.4254C1.74441 16.7474 0.789081 16.4084 -0.443602 16.4084C-1.27566 16.4084 -1.99986 16.5779 -2.6162 16.9169C-3.20173 17.225 -3.6948 17.6565 -4.09542 18.2112C-4.46523 18.7351 -4.74258 19.3668 -4.92748 20.1064C-5.11239 20.8152 -5.20484 21.5857 -5.20484 22.4177H-12Z" fill="white"/>
</g>
<defs>
<clipPath id="clip0_101_2">
<rect width="100" height="50" fill="white"/>
</clipPath>
</defs>
</svg>
